<mxfile host="app.diagrams.net" modified="2024-05-21T09:05:33.824Z" agent="Mozilla/5.0 (Macintosh; Intel Mac OS X 10_15_7) AppleWebKit/537.36 (KHTML, like Gecko) Chrome/124.0.0.0 Safari/537.36" version="24.4.4" etag="HwQJmpAeNSr9ELOu8yzk" type="github">
  <diagram name="Page-1" id="pgQvpXkHm_-C8_xM0yqf">
    <mxGraphModel>
      <root>
        <mxCell id="0" />
        <mxCell id="1" parent="0" />
      </root>
    </mxGraphModel>
  </diagram>
</mxfile>
